<svg xmlns="http://www.w3.org/2000/svg" width="58" height="51" fill="none"><g fill="#463530" clip-path="url(#a)"><path d="M15.795 43.03a23.82 23.82 0 0 1-.736-1.267l-.09.02c-.251.282-.642.496-1.172.641-.53.145-.989.26-1.376.342l-.04-.188-.144-.019-.15.18-.02-.095c-.31.001-.614-.18-.909-.543-.332-.387-.546-.734-.642-1.041.106-.088.152-.163.139-.226l-.06-.282c-.12.026-.167.02-.144-.018a1.5 1.5 0 0 0-.095-.225l.289.036c-.054-.25-.057-.413-.01-.488l.178-.48c.139.069.256.11.353.121l-.08-.375c.149-.032.212-.029.189.009.006.03.041-.026.104-.17l.07-.113c.208-.044.316-.198.322-.46a.383.383 0 0 1-.075-.132c-.013-.063-.038-.107-.075-.132l.264-.301.59-.077-.01-.047c-.035-.025-.057-.053-.064-.084-.013-.063.022-.12.104-.17a.532.532 0 0 0 .14-.225c-.074-.05-.087-.113-.04-.188l.218.15-.02-.094c.136-.095.19-.204.164-.33l.01-.394.198.056a.338.338 0 0 0 .144.018c.09-.019.125-.075.105-.17a1.654 1.654 0 0 0-.035-.384 3.118 3.118 0 0 0-.24-.686 5.485 5.485 0 0 0-.209-.544c.11-.514.144-.865.104-1.053-.027-.125-.074-.197-.14-.216-.073-.05-.123-.138-.15-.263-.019-.094-.014-.291.015-.592-.192-.024-.313-.08-.363-.168a3.031 3.031 0 0 1-.045-.432c.07-.113.093-.298.07-.555a8.694 8.694 0 0 0-.146-.902 8.705 8.705 0 0 0-.234-.882c-.06-.282-.133-.48-.22-.592a.698.698 0 0 1-.104-.272 1.474 1.474 0 0 1-.02-.536c.02-.2-.039-.4-.175-.6a1.33 1.33 0 0 1-.254-.536 3.653 3.653 0 0 1-.075-1.014c.053-.339.033-.58-.06-.724a.716.716 0 0 0-.478-.046c-.208.045-.41.12-.606.227-.165.1-.34.155-.526.161-.133-.037-.224-.1-.274-.187-.026-.125-.137-.134-.333-.027l.05.234c-.083.05-.18.104-.293.16l-.358.077-.626.133c-.215.013-.4.02-.556.02l-.14-.216.03-.3.08-.066.268-.058a2.827 2.827 0 0 1 .088-.902l.2.056.178-.038c-.063-.15-.106-.206-.13-.169l.115-.122c.182.125.315.162.398.112.076-.082.195-.107.357-.076l-.02-.094-.089.019c.093-.15.175-.201.248-.151.047-.076.048-.141.005-.198-.02-.094-.018-.16.005-.197.15.263.433.35.85.261.238-.05.473-.117.705-.199.226-.113.413-.186.562-.217a2.09 2.09 0 0 1-.13-1.053c.069-.407.1-.774.093-1.1l-.03-.14a.334.334 0 0 0-.14-.216.557.557 0 0 1-.094-.225c-.02-.094-.005-.245.044-.451l-.134.028-.074-.131c.129-.126.153-.377.073-.752a1.874 1.874 0 0 0-.134-.413l-.06-.282.358-.076-.05-.235c.023-.038.036-.122.04-.254-.103-.043-.162-.097-.175-.16-.013-.062-.008-.112.015-.15.053-.044.07-.113.05-.207-.02-.093-.122-.203-.304-.328.04-.106.064-.21.074-.31.033-.138.07-.26.11-.367a.946.946 0 0 1-.294-.28 2.167 2.167 0 0 0-.125-.367l.358-.076-.19-.45.25-.152c-.054-.25-.092-.357-.116-.319-.023.038-.077 0-.164-.112l-.02-.094a.824.824 0 0 1-.005-.245 1.48 1.48 0 0 0-.025-.338c-.12.026-.185.007-.199-.056l-.07-.328c.123-.157.144-.276.065-.358-.057-.119.038-.188.283-.207a3.543 3.543 0 0 1-.468-.882l.298-.358a.57.57 0 0 1-.299-.084.46.46 0 0 0-.228-.197c-.024.038-.249.151-.676.34l-1.495.662c-.576.22-1.108.431-1.595.633-.493.17-.808.303-.944.397-.54.246-1.06.504-1.564.774-.51.24-1.063.423-1.66.55a1.32 1.32 0 0 1-.308-.573c-.252-.306-.446-.707-.583-1.202a9.78 9.78 0 0 1-.28-1.315l.194-.188a.783.783 0 0 1 .532-.358.967.967 0 0 1 .323-.02l.313-.066a.381.381 0 0 0 .015-.15c-.014-.063-.009-.113.014-.151.057.119.103.19.14.216.036.025.041-.026.015-.15.069-.114.148-.18.238-.199.086.113.159.163.219.15.06-.013.175-.054.347-.123a.626.626 0 0 1-.07-.329l.462-.245.07.329c.358-.076.504-.124.438-.142-.073-.05-.034-.157.118-.32.053-.044.164-.035.333.027.163.031.3.018.413-.038.136-.095.238-.198.308-.311.092-.15.192-.27.298-.358l.11.517-.184.235a.382.382 0 0 1-.075-.131c-.013-.063-.04-.041-.08.066-.046.075-.067.194-.064.357.027.125.107.206.24.244.078-.213.174-.348.287-.405.136-.094.275-.173.417-.236.086.113.17.21.249.29.11.076.207.17.293.282.086-.182.146-.342.179-.48.026-.169.14-.291.342-.367.08.081.18.11.299.084a1.96 1.96 0 0 0 .516-.208.851.851 0 0 1 .671-.143c-.027-.125-.052-.169-.075-.131-.03.006.009-.035.115-.123a.428.428 0 0 0 .397.112.852.852 0 0 0 .417-.236c.16-.132.295-.226.408-.283.165.194.338.272.517.234a.969.969 0 0 0 .303-.113.826.826 0 0 1 .258-.104l-.07-.33c.156 0 .326-.003.512-.01.215-.013.373-.079.472-.198.086.112.118.187.095.225l.154.065-.09-.422c.12-.026.353-.026.7-.002.371-.013.569-.039.592-.077l-.015-.29.09-.02c.148-.032.236.015.263.14.05.088.139.07.268-.057l-.04-.187 1.41-.398.08.375a.99.99 0 0 0 .329-.217c.099-.119.26-.17.481-.151.057.119.145.165.264.14.15-.032.315-.132.497-.302.182-.17.314-.28.397-.33a.53.53 0 0 0 .13.17.56.56 0 0 1 .119.121c.195-.107.33-.201.407-.283.076-.081.215-.16.417-.236l.05.235c-.12.025-.255.12-.407.283l.536-.114c.14-.226.306-.392.502-.5a2.87 2.87 0 0 1 .695-.245c.239-.051.466-.083.681-.096.245-.02.472-.051.68-.096l.06.282.805-.17c.18-.039.35-.042.512-.012.156 0 .314.081.473.244l.08-.066c-.008-.032.01-.02.054.037.156 0 .465.065.93.195.486.093.77.18.85.261a1.44 1.44 0 0 0-.428.19l.02.093.358-.076c.046-.075.1-.12.159-.132a.528.528 0 0 0 .114-.122.444.444 0 0 1-.005.197.445.445 0 0 0 .085.179c.162.03.262.058.298.083.06-.012.128.088.204.3.176.094.282.3.319.62.03.288.095.52.194.695-.023.038-.064.063-.124.075-.03.007-.056.029-.08.066l.2.056a.53.53 0 0 1 .153.066 1.877 1.877 0 0 0-.009.836c.083.244.092.504.026.78-.083.345-.232.67-.447.978l-.555.904c-.156 0-.249.004-.279.01-.03.006-.06-.069-.094-.225.063-.145.114-.27.154-.377.069-.113.135-.241.198-.385.086.112.111.156.075.131-.007-.031.026-.022.099.028l-.04-.188c.046-.075.051-.125.015-.15-.013-.063-.009-.113.015-.15l.372-.227-.338-.272c.182-.17.241-.477.178-.921-.063-.445-.088-.783-.075-1.015l-.045.01c-.06.012-.126-.006-.199-.056l-.219-.15a.444.444 0 0 0 .005-.197.444.444 0 0 1 .005-.198 2.36 2.36 0 0 1-1.03-.223 4.478 4.478 0 0 0-1.003-.326c-.222-.019-.56.004-1.014.068-.424.057-.92.146-1.486.267-.924.196-1.856.427-2.797.692-.91.26-1.553.461-1.927.606-.196.107-.499.22-.91.34a6.906 6.906 0 0 0-1.142.342c-.351.107-.581.27-.69.49a3.849 3.849 0 0 0-.108 1.692c.12.563.162 1.127.126 1.691a48.6 48.6 0 0 0 .006 1.128c0 .589.002 1.259.006 2.01.028.715.041 1.366.042 1.955 0 .59.017.962.05 1.118l-.109-.075-.01-.047c-.043-.056-.07-.034-.08.066l.04.188c.067.019.127.154.18.404.067.313.108.73.126 1.25.046.513.09.864.13 1.052l.511-.011.03.14a.488.488 0 0 0 .234 0 1.53 1.53 0 0 0 .472-.198l.279.431.248-.15a1.13 1.13 0 0 1 .238-.198c.067.018.164.112.294.28.122-.156.243-.247.362-.273.12-.025.207.022.264.14a.43.43 0 0 0 .363.169c.155 0 .256-.038.303-.113.046-.076.198-.092.457-.049l.06.282a2.74 2.74 0 0 1 .437-.142l.09-.019c.059-.012.152-.016.278-.01l.1.47.134-.029c.07-.113.193-.188.372-.226.066.018.15.115.249.29.112-.056.198-.09.258-.104l.239-.197c.04.188.081.31.124.366.037.025.133.037.288.037.033-.138.053-.192.06-.16.03-.006.1-.038.213-.095.322.194.733.368 1.233.524.494.124.961.27 1.402.438.47.162.776.424.915.787l.09-.019-.04-.188c.146.1.258.19.338.272.08.081.162.178.249.29.218-.144.402-.232.551-.264a3.79 3.79 0 0 0 .527-.16c-.01-.195.038-.336.143-.424.014.063.057.119.13.169-.027-.125-.017-.226.03-.301l.04.188.129.169c.046-.076.064-.21.054-.405l-.025.104c-.016.069-.046.075-.09.019l-.03-.141.07-.113.417-.236c.05.088.097.16.14.216a.307.307 0 0 1 .164.112l.248-.15a9.721 9.721 0 0 1 0-.442c.003-.132.106-.236.308-.311.169.062.246.062.233 0a.75.75 0 0 1 .094-.217c.146.1.249.143.309.13.149-.031.245-.166.288-.404.072-.244.278-.305.616-.18l-.05-.235.492-.104c.152.425.038.842-.342 1.25a7.24 7.24 0 0 1-1.36 1.075c-.527.308-1.01.607-1.446.896-.437.29-.659.565-.665.828.334.256.555.635.662 1.136.126.595.092 1.24-.103 1.936-.165.69-.375 1.241-.63 1.655.03.289-.131.7-.485 1.233-.325.527-.761 1.11-1.31 1.75a33.682 33.682 0 0 1-1.659 1.875l-1.584 1.563c-.463.459-.79.757-.978.896a21.53 21.53 0 0 0-1.142.782c-.348.27-.71.544-1.088.82a3.082 3.082 0 0 1-.72.35c-.261.088-.385.31-.372.668-.023.038-.021.12.005.244.027.125.072.263.135.413.07.182.13.317.18.404a.826.826 0 0 1-.498.302Zm-.723-8.24c.027-.169.103-.25.229-.245l.357-.076c-.013-.357.031-.66.134-.911.086.112.144.165.174.159.053-.044.142-.063.268-.057-.003-.163.147-.408.452-.734.334-.333.557-.528.67-.584l-.05-.235c.209-.044.363-.126.462-.246a4.8 4.8 0 0 0 .342-.367l.204.3c-.036-.32.075-.457.333-.414l-.05-.235.358-.076c.095-.576.41-1.003.943-1.28.056.119.07.181.04.188l.199.056a.61.61 0 0 1 .292-.603c.249-.15.482-.298.7-.443a.854.854 0 0 0 .363-.715c.066.019.106.06.12.122.036.025.065.019.089-.019.288-.258.451-.44.491-.546.07-.113.209-.192.417-.236l.224-.048a1.44 1.44 0 0 1 .368-.029l.084-.263c-.014-.063-.038-.107-.075-.131l-.13-.17c.133.038.272-.04.418-.235a1.136 1.136 0 0 0-.303-.328 1.1 1.1 0 0 1-.214-.348c-.216.014-.367-.036-.453-.149a1.932 1.932 0 0 0-.214-.347c-.566.12-1.073.08-1.52-.119a7.734 7.734 0 0 0-1.457-.475.543.543 0 0 0-.313.066.543.543 0 0 1-.313.067 62.677 62.677 0 0 0-2.679-.069 17.712 17.712 0 0 0-2.693.082c.096.306.133.626.11.958 0 .294-.01.608-.034.94-.023.037-.005.197.055.479l.2.94.1.469c.033.156.045.285.035.385-.01.395.032.958.126 1.691.093.733.202 1.462.325 2.189.116.695.233 1.243.35 1.643l.088-.018a.444.444 0 0 1 .229-.245c.027.125.025.19-.005.197-.03.006.022.028.154.065Zm.382 3.993c.159-.132.284-.273.377-.424a4.16 4.16 0 0 1 .377-.423c.086.112.126.153.12.122-.007-.032.056-.029.188.008l-.149-.262.09-.02.174.16a.38.38 0 0 0 .014-.15c-.013-.063-.008-.113.015-.15a.723.723 0 0 0 .234-.001c.09-.02.167-.02.233 0a.71.71 0 0 1 .01-.395c.086.112.159.162.219.15l.268-.058.03-.3a.76.76 0 0 1 .118-.32c.014.062.057.119.13.169-.027-.126-.017-.226.03-.301l.129.169c.033-.138.034-.204.005-.198-.03.007.011-.019.124-.075l.298.084a.669.669 0 0 1 .079-.508l.07.329.268-.057a1.535 1.535 0 0 1-.11-.517.489.489 0 0 0 .234 0c.149-.032.28-.076.392-.133.057.119.07.182.04.188-.006-.031.038-.04.134-.029a.991.991 0 0 1 0-.441l.402-.086-.07-.328.626-1.017c.096.012.177.028.243.047l.18-.039c.089-.019.201-.222.337-.611.251.012.475-.036.67-.143a3.5 3.5 0 0 0 .045-.45 9.87 9.87 0 0 1 0-.443c.185-.006.304-.032.357-.076.076-.081.132-.11.169-.085l-.02-.093.035-.057c.046-.075.062-.144.05-.207a.948.948 0 0 1-.016-.291c.12-.026.187-.073.204-.142l.119-.32.298.084c.06-.012.152-.015.278-.01l-.04-.187c-.132-.038-.18-.044-.144-.019.06-.013.076-.082.05-.207.105-.088.181-.17.228-.245a.37.37 0 0 1 .303-.113c-.017-.225.006-.41.069-.555.056-.175.076-.376.059-.601l.327-.659c.11-.22.152-.457.129-.714a.952.952 0 0 1-.577-.074 9.974 9.974 0 0 1-2.035 1.856 7.911 7.911 0 0 0-1.971 1.94l-1.073.67c-.11.22-.336.546-.68.98a8.983 8.983 0 0 1-1.107 1.167c-.394.346-.714.528-.959.547l.07.33-.224.047.05.235a2.396 2.396 0 0 0-.615.621 4.167 4.167 0 0 1-.527.603l.22 1.033a.762.762 0 0 0-.03.3c.027.126.087.26.18.405.116.106.199.203.249.29Zm-2.549 1.425c.329-.07.527-.16.597-.274.099-.119.187-.22.263-.3.106-.089.288-.111.546-.068l-.03-.14a.803.803 0 0 1 .02-.349.783.783 0 0 0-.11-.516c-.063-.15-.128-.235-.194-.254-.036-.024-.093-.143-.17-.356l-.312.066c-.003.132-.02.2-.05.207-.006-.031-.023.038-.05.207l-.56.218c.046.219-.022.413-.204.583a6.16 6.16 0 0 0-.556.462c-.182.169-.258.398-.228.686l.179-.038a2.22 2.22 0 0 1 .457-.048l.402-.086ZM27.114 38.553a.515.515 0 0 1-.282-.006 4.723 4.723 0 0 1-.268-.129 2.456 2.456 0 0 1-.511-.46c-.135-.174-.205-.335-.21-.484a.388.388 0 0 0-.015-.195l-.021-.102c-.052-.033-.07-.056-.055-.068a.298.298 0 0 0 .035-.086c.051-.011.059-.061.022-.15-.032-.064-.037-.213-.015-.447a3.06 3.06 0 0 1 .17-.71c.032-.096.086-.222.16-.378.07-.166.152-.328.242-.489.098-.17.188-.308.273-.415a5.26 5.26 0 0 1 .496-.555c.164-.15.335-.265.513-.347.178-.082.366-.144.561-.185a.669.669 0 0 1 .541.096c.214.043.375.128.482.255.115.125.21.3.284.522.08.247.12.565.123.952 0 .38-.119.846-.357 1.399-.149.349-.307.63-.475.842-.169.212-.361.416-.578.612-.153.156-.33.268-.529.337-.198.069-.394.132-.586.19Zm.974-1.821c.153-.2.248-.405.283-.616a10.9 10.9 0 0 0 .123-.74.555.555 0 0 0 .01-.267 1.582 1.582 0 0 0-.06-.344c-.034-.116-.078-.178-.132-.184-.09-.042-.169-.039-.238.011a1.235 1.235 0 0 0-.259.227c-.21.265-.397.56-.56.886-.155.315-.233.68-.234 1.095.02.216.075.372.166.467.099.085.224.09.377.013.16-.087.334-.27.524-.548Zm2.262.009a1.549 1.549 0 0 1 .009-.333c.014-.144.03-.275.05-.394.026-.129.044-.212.053-.25.066-.234.116-.46.15-.68.042-.22.073-.43.093-.628l.033-.285c.024-.137.045-.27.062-.396.016-.136.018-.23.008-.28-.013-.226.026-.398.117-.514a.869.869 0 0 1 .366-.29.708.708 0 0 1 .302.042c.086.026.178.064.278.113.084.062.14.16.17.295.026.126.026.312-.003.556-.015.135-.045.31-.089.521-.037.202-.08.4-.127.596a15.591 15.591 0 0 0-.197 1.206c-.035.254-.061.467-.078.638-.013.109.035.165.142.168.09.008.181-.007.271-.044.099-.039.195-.086.29-.141a9.141 9.141 0 0 0 .577-.427c.005-.063.013-.148.026-.257.02-.11.045-.265.074-.465.037-.202.077-.475.12-.82a19.848 19.848 0 0 1 .097-.734c.014-.1.025-.177.031-.232l.022-.084a1.697 1.697 0 0 1 .044-.736c.066-.235.168-.402.307-.502.124-.044.217-.068.278-.073.068-.014.148.004.239.056.199.098.319.183.36.254.05.06.09.17.124.33a.578.578 0 0 0-.033.22.8.8 0 0 1-.059.29 1.91 1.91 0 0 0-.087.216.304.304 0 0 0-.011.135l-.164.987c-.03.192-.055.351-.072.478l-.046.288.15-.045c.112-.024.227-.044.348-.061.12-.025.272 0 .457.075.023-.014.062.022.116.107.062.084.117.174.164.27.054.085.087.136.099.15.012.183.001.384-.032.603a6.03 6.03 0 0 1-.145.639c-.05.222-.112.434-.185.635a.726.726 0 0 1-.083.176 7 7 0 0 1-.108.248c-.084.23-.217.359-.397.388-.172.028-.35-.053-.533-.244a1.701 1.701 0 0 1-.065-.37 4.239 4.239 0 0 1 .033-.535c.005-.063.023-.164.056-.303.041-.141.078-.281.11-.42.04-.15.054-.25.044-.3a.297.297 0 0 1-.056.05.342.342 0 0 0-.079.07.956.956 0 0 1-.144.137c-.061.048-.121.1-.18.157a4.489 4.489 0 0 1-.587.442c-.11.068-.273.16-.489.276-.424.1-.741.154-.953.163a1.173 1.173 0 0 1-.58-.088 1.082 1.082 0 0 1-.448-.355 1.418 1.418 0 0 1-.187-.436l-.053-.253Zm12.602-1.528a1.36 1.36 0 0 1-.406.1.852.852 0 0 1-.416-.071 5.918 5.918 0 0 0-.248-.291c-.073-.09-.094-.21-.063-.357a.984.984 0 0 0-.022-.419 1.413 1.413 0 0 1-.025-.431.113.113 0 0 0 .002-.053.158.158 0 0 1 .017-.044.66.66 0 0 0 .02-.282 2.321 2.321 0 0 1 .005-.292.892.892 0 0 0-.006-.157 12.086 12.086 0 0 0-.029-.258 19.557 19.557 0 0 1-.033-.284.75.75 0 0 0-.012-.183 1.4 1.4 0 0 0-.01-.104c-.02.03-.078.153-.175.368-.096.215-.205.458-.325.73a46.27 46.27 0 0 0-.318.703.828.828 0 0 1-.032.1.429.429 0 0 0-.037.074c-.03.068-.054.126-.07.173-.019.04-.027.063-.025.072-.073.2-.175.411-.306.633-.133.214-.26.408-.383.584-.163.07-.301.09-.414.062a1.192 1.192 0 0 0-.387-.063l-.145-.181a5.18 5.18 0 0 0-.148-.194l-.008-.474a20.5 20.5 0 0 0-.008-.792c0-.291-.012-.557-.036-.8a.589.589 0 0 0-.012-.116.418.418 0 0 0-.009-.104.114.114 0 0 0 .003-.053l-.011-.05a1.17 1.17 0 0 0-.023-.168.537.537 0 0 0-.04-.124l-.007-.038c-.004-.017-.01-.028-.021-.035-.12.44-.25.794-.389 1.061-.13.266-.256.51-.378.73-.1.197-.2.399-.299.605-.092.196-.197.39-.316.583a4.248 4.248 0 0 1-.227.313 3.01 3.01 0 0 1-.256.305.538.538 0 0 1-.153.284.528.528 0 0 1-.252.133.698.698 0 0 1-.438-.052c-.15-.074-.239-.179-.267-.314-.027-.126.007-.261.1-.405l.035-.087a.68.68 0 0 0 .02-.096l.458-.733c.182-.276.351-.546.509-.809a4.45 4.45 0 0 0 .331-.639l.11-.301a6.57 6.57 0 0 1 .193-.411c.09-.205.188-.41.295-.619.106-.216.206-.414.301-.593.103-.19.18-.325.234-.407.088.035.178.06.27.075.099.006.191 0 .276-.019l.165.15c.062.04.128.079.199.117.12.063.214.17.282.323.077.152.136.324.177.518.066.313.102.649.108 1.01.012.35.026.646.042.89a.628.628 0 0 0 .052-.13c.11-.28.218-.545.325-.797a9.75 9.75 0 0 1 .33-.705c.1-.206.2-.4.304-.58.102-.19.202-.37.3-.54.105-.173.212-.34.32-.505l.16-.246.187-.251c.079-.008.16-.02.246-.039a3.05 3.05 0 0 1 .265-.07c.098.041.18.068.244.08.063.005.149.009.256.012.024.11.058.209.103.296a.734.734 0 0 1 .077.301c.003.096.005.167.005.21a.514.514 0 0 1-.033.22 2.03 2.03 0 0 0-.057.488c-.008.213-.005.433.007.66.01.218.017.393.018.525.008.078.008.161 0 .251-.01.081-.034.175-.074.28.001.088.009.166.023.233a.382.382 0 0 1-.005.227l.013.063.011.05a.626.626 0 0 1 .038.178c.01.05.01.108-.004.172l.043.203c.018.04.054.103.107.189l-.115.21c-.039.07-.076.144-.113.222Zm2.974-.751a1.178 1.178 0 0 1-.263.082 2.574 2.574 0 0 1-.302.024c-.082-.009-.126-.026-.13-.051-.01-.042-.036-.059-.078-.05l-.162-.071a1.196 1.196 0 0 0-.29-.11 1.08 1.08 0 0 1-.24-.373c-.051-.156-.06-.446-.024-.868a2.126 2.126 0 0 1 .05-.896c.08-.335.2-.67.36-1.003.16-.334.337-.636.528-.906.19-.278.367-.492.531-.642a.702.702 0 0 1 .433-.29c.202-.052.389-.052.56 0a.941.941 0 0 1 .335.193c.129.105.255.22.38.343.122.115.22.222.295.32.045.088.084.168.117.24a.97.97 0 0 1 .105.242c.03.1.054.253.072.461-.01.161-.016.326-.016.493.007.157.027.316.061.477.018.163.059.274.124.33.074.055.16.041.258-.041a.392.392 0 0 1 .317-.08c.118.01.209.06.273.153.07.082.084.207.04.375a1.04 1.04 0 0 1-.176.368c-.09.125-.195.235-.317.332-.123.088-.249.145-.377.172a.49.49 0 0 1-.302-.041 1.185 1.185 0 0 1-.32-.25 2.14 2.14 0 0 1-.28-.376l-.139-.275-.37.515a6.242 6.242 0 0 1-.263.4 1.195 1.195 0 0 0-.148.243c-.027.085-.098.17-.213.257-.106.084-.25.185-.43.303Zm.086-1.289c.127-.115.229-.242.306-.382.086-.142.164-.295.236-.46.07-.174.146-.358.23-.552.103-.224.172-.402.207-.533.043-.133.067-.27.072-.412a1.85 1.85 0 0 0-.202-.261c-.083-.098-.155-.144-.216-.14-.12.026-.25.128-.389.308a3.968 3.968 0 0 0-.404.734c-.026.05-.054.126-.085.23a7.614 7.614 0 0 1-.097.298 2.726 2.726 0 0 1-.057.17c-.018.04-.04.128-.064.266-.017.127-.03.257-.037.391-.009.125-.008.213.003.264.01.05.026.105.048.162.03.055.08.084.151.087.072.002.172-.054.298-.17Zm5.161.266a4.142 4.142 0 0 1-.394.03.87.87 0 0 1-.39-.075.394.394 0 0 1-.223-.297 1.36 1.36 0 0 1-.027-.192.4.4 0 0 1 .028-.178.154.154 0 0 1 .018-.044l.02-.03-.052-.122a.653.653 0 0 1-.014-.129c.019-.119.023-.225.012-.32a1.52 1.52 0 0 1-.004-.33.114.114 0 0 0 .002-.053c-.003-.017-.002-.03.005-.04.013-.189.022-.38.025-.575.003-.194.03-.381.081-.56.089-.336.165-.67.228-1 .07-.341.135-.681.197-1.02a.621.621 0 0 1 .122-.305.366.366 0 0 1 .2-.122c.154-.032.323.007.506.118.182.102.331.216.447.341-.051.179-.11.363-.176.554a9.784 9.784 0 0 0-.19.556c-.059.18-.095.364-.109.552.121-.017.235-.046.342-.086a1.21 1.21 0 0 1 .345-.073c.147-.023.29-.062.43-.118.137-.064.275-.103.415-.115.002-.115.011-.262.026-.442a5.32 5.32 0 0 1 .076-.585c.037-.202.087-.384.15-.547.072-.166.159-.281.26-.347.126-.08.233-.098.323-.055.089.043.188.088.296.136.176.077.288.145.337.206.057.058.069.135.035.23-.026.085-.07.213-.131.385a1.22 1.22 0 0 0-.073.346.974.974 0 0 1-.074.347 1.84 1.84 0 0 0-.053.25 19.61 19.61 0 0 1-.067.503c-.03.191-.056.386-.076.585-.022.19-.039.36-.05.513a6.904 6.904 0 0 0-.024.27l.02.34c.006.113.017.23.034.35.02.136-.002.242-.066.317a.51.51 0 0 1-.265.136 1.143 1.143 0 0 1-.643-.075.597.597 0 0 1-.197-.17.764.764 0 0 1-.089-.232 1.265 1.265 0 0 1-.007-.475l.065-.384c.002-.07.01-.139.023-.203.02-.075.031-.148.034-.219a4.283 4.283 0 0 0-.73.142c-.236.068-.474.14-.715.218-.03.112-.052.24-.065.384-.006.142-.01.293-.011.452.007.158.004.313-.008.465-.004.107-.013.21-.028.31-.007.09-.024.177-.05.262a.866.866 0 0 1-.1.22Z"/></g><defs><clipPath id="a"><path fill="#fff" d="M0 11 48.907.604l8.317 39.126L8.316 50.126z"/></clipPath></defs></svg>